<svg xmlns="http://www.w3.org/2000/svg" width="23.5" height="19" viewBox="0 0 23.5 19"><g transform="translate(-11 -29)"><path d="M20.5,1.5H0A1.5,1.5,0,0,1-1.5,0,1.5,1.5,0,0,1,0-1.5H20.5A1.5,1.5,0,0,1,22,0,1.5,1.5,0,0,1,20.5,1.5Z" transform="translate(12.5 30.5)"/><path d="M20.5,1.5H0A1.5,1.5,0,0,1-1.5,0,1.5,1.5,0,0,1,0-1.5H20.5A1.5,1.5,0,0,1,22,0,1.5,1.5,0,0,1,20.5,1.5Z" transform="translate(12.5 38.5)"/><path d="M20.5,1.5H0A1.5,1.5,0,0,1-1.5,0,1.5,1.5,0,0,1,0-1.5H20.5A1.5,1.5,0,0,1,22,0,1.5,1.5,0,0,1,20.5,1.5Z" transform="translate(12.5 46.5)"/></g></svg>