<svg width="1024" height="512" viewBox="0 0 1024 512" fill="none" xmlns="http://www.w3.org/2000/svg">
<g clip-path="url(#clip0_28_3)">
<rect width="1024" height="512" fill="#C4C4FC"/>
<rect x="558.601" y="135.718" width="438.331" height="63" rx="31.5" transform="rotate(-40.8202 558.601 135.718)" fill="#DADAEF"/>
<rect x="405" y="558.955" width="286" height="63" rx="31.5" transform="rotate(-40.8202 405 558.955)" fill="#DADAEF"/>
<rect x="236" y="221.955" width="191.455" height="63" rx="31.5" transform="rotate(-40.8202 236 221.955)" fill="#F4F4F4"/>
<path d="M350.585 296.531V254.096C350.585 249.996 350.08 247.023 349.049 245.177C348.019 243.332 346.327 242.418 343.974 242.418C342.224 242.418 340.571 243.234 338.976 244.886C337.382 246.518 336.585 249.452 336.585 253.649V296.531H301.057V214.148H335.671V224.601H335.982C337.012 223.28 338.257 221.959 339.754 220.676C341.232 219.394 342.924 218.209 344.83 217.14C346.735 216.071 348.855 215.197 351.208 214.517C353.561 213.856 356.127 213.526 358.908 213.526C364.236 213.526 368.864 214.478 372.754 216.363C376.643 218.267 379.735 221.201 381.99 225.203C384.654 221.92 387.941 219.161 391.83 216.907C395.719 214.653 400.658 213.526 406.589 213.526C412.326 213.526 417.07 214.653 420.823 216.907C424.557 219.161 427.532 221.978 429.749 225.359C431.946 228.74 433.482 232.412 434.357 236.356C435.233 240.3 435.66 243.973 435.66 247.354V296.55H400.133V253.493C400.133 249.083 399.589 246.149 398.519 244.653C397.45 243.176 395.777 242.418 393.522 242.418C391.46 242.418 389.73 243.37 388.291 245.255C386.852 247.159 386.132 249.938 386.132 253.63V296.512H350.585V296.531Z" fill="#6868AD"/>
<path d="M613.025 214.225H652.402L663.933 257.885H664.556L675.64 214.225H713.637L682.679 296.045H644.06L613.025 214.225Z" fill="#6868AD"/>
<path d="M702.961 267.483H724.721V296.531H691.546L702.961 267.483Z" fill="#6868AD"/>
<path d="M485.441 296.628C508.274 296.628 526.783 278.134 526.783 255.32C526.783 232.506 508.274 214.012 485.441 214.012C462.609 214.012 444.1 232.506 444.1 255.32C444.1 278.134 462.609 296.628 485.441 296.628Z" fill="#6868AD"/>
<path d="M485.441 267.677C492.272 267.677 497.809 262.145 497.809 255.32C497.809 248.495 492.272 242.962 485.441 242.962C478.611 242.962 473.074 248.495 473.074 255.32C473.074 262.145 478.611 267.677 485.441 267.677Z" fill="#F6F9FA"/>
<path d="M576.311 297.483C599.143 297.483 617.653 278.989 617.653 256.175C617.653 233.361 599.143 214.867 576.311 214.867C553.479 214.867 534.969 233.361 534.969 256.175C534.969 278.989 553.479 297.483 576.311 297.483Z" fill="#6868AD"/>
<path d="M576.311 268.532C583.141 268.532 588.678 263 588.678 256.175C588.678 249.35 583.141 243.817 576.311 243.817C569.481 243.817 563.944 249.35 563.944 256.175C563.944 263 569.481 268.532 576.311 268.532Z" fill="#F6F9FA"/>
<rect x="43" y="107.955" width="286" height="63" rx="31.5" transform="rotate(-40.8202 43 107.955)" fill="#6868AD"/>
<rect x="-171" y="557.203" width="431.709" height="63" rx="31.5" transform="rotate(-40.8202 -171 557.203)" fill="#9494CE"/>
<rect x="692" y="558.955" width="286" height="63" rx="31.5" transform="rotate(-40.8202 692 558.955)" fill="#6868AD"/>
<rect x="852" y="158.955" width="286" height="63" rx="31.5" transform="rotate(-40.8202 852 158.955)" fill="#6868AD"/>
<rect x="42" y="628.955" width="286" height="63" rx="31.5" transform="rotate(-40.8202 42 628.955)" fill="#6868AD"/>
</g>
<defs>
<clipPath id="clip0_28_3">
<rect width="1024" height="512" fill="white"/>
</clipPath>
</defs>
</svg>
