<svg width="199" height="123" viewBox="0 0 199 123" fill="none" xmlns="http://www.w3.org/2000/svg">
<path d="M72.9028 122.293V59.7621C72.9028 53.7205 72.1476 49.3403 70.6372 46.6215C69.1267 43.9028 66.6597 42.5434 63.1858 42.5434C60.6181 42.5434 58.151 43.7517 55.8351 46.1684C53.4687 48.5851 52.3108 52.8646 52.3108 59.0573V122.243H0V0.855894H50.9514V16.2622H51.4045C52.9149 14.2986 54.7778 12.3854 56.9427 10.4722C59.1076 8.60937 61.625 6.84722 64.3941 5.28645C67.1632 3.67534 70.3351 2.41665 73.809 1.46005C77.283 0.45311 81.059 0 85.1372 0C92.9913 0 99.7882 1.40971 105.528 4.17881C111.267 6.99825 115.799 11.3281 119.122 17.2187C123.049 12.3854 127.882 8.30728 133.622 4.98436C139.361 1.66145 146.611 0 155.372 0C163.83 0 170.828 1.66145 176.316 4.98436C181.804 8.30728 186.184 12.4358 189.457 17.4201C192.679 22.4045 194.944 27.7917 196.253 33.6319C197.512 39.4219 198.167 44.8594 198.167 49.8438V122.344H145.856V58.9062C145.856 52.4114 145.05 48.0816 143.49 45.8663C141.878 43.7014 139.462 42.5937 136.139 42.5937C133.118 42.5937 130.55 44.0035 128.436 46.7726C126.321 49.592 125.264 53.6701 125.264 59.1076V122.293H72.9028Z" fill="#6868AD"/>
</svg>
