<svg width="1080" height="1080" viewBox="0 0 1080 1080" fill="none" xmlns="http://www.w3.org/2000/svg">
<g clip-path="url(#clip0_30_26)">
<rect width="1080" height="1080" fill="#C4C4FC"/>
<rect x="405.875" y="950.493" width="396.98" height="106.763" rx="50" transform="rotate(-45.9758 405.875 950.493)" fill="#DADAEF"/>
<rect x="-104.902" y="386.081" width="773.261" height="106.763" rx="50" transform="rotate(-40.8202 -104.902 386.081)" fill="#DADAEF"/>
<rect x="561" y="197.823" width="484.669" height="106.763" rx="50" transform="rotate(-40.8202 561 197.823)" fill="#6868AD"/>
<rect x="-176" y="1095.82" width="484.669" height="106.763" rx="50" transform="rotate(-40.8202 -176 1095.82)" fill="#6868AD"/>
<rect x="883" y="974.543" width="576.029" height="106.763" rx="50" transform="rotate(-40.8202 883 974.543)" fill="#6868AD"/>
<path d="M244.963 614.037V536.522C244.963 529.033 244.04 523.603 242.159 520.231C240.278 516.859 237.19 515.191 232.895 515.191C229.701 515.191 226.684 516.682 223.774 519.698C220.863 522.68 219.408 528.039 219.408 535.705V614.037H154.561V463.55H217.74V482.645H218.308C220.189 480.231 222.46 477.818 225.193 475.475C227.891 473.133 230.979 470.968 234.457 469.015C237.936 467.063 241.804 465.466 246.099 464.224C250.394 463.017 255.079 462.414 260.154 462.414C269.88 462.414 278.327 464.153 285.426 467.596C292.525 471.074 298.168 476.433 302.285 483.745C307.148 477.747 313.146 472.707 320.245 468.59C327.344 464.472 336.359 462.414 347.185 462.414C357.655 462.414 366.316 464.472 373.166 468.59C379.981 472.707 385.411 477.853 389.457 484.029C393.468 490.204 396.272 496.912 397.869 504.117C399.466 511.322 400.247 518.03 400.247 524.206V614.072H335.401V535.421C335.401 527.365 334.407 522.005 332.455 519.272C330.503 516.575 327.45 515.191 323.333 515.191C319.571 515.191 316.412 516.93 313.785 520.373C311.159 523.851 309.845 528.926 309.845 535.67V614.001H244.963V614.037Z" fill="#6868AD"/>
<path d="M723.984 463.692H795.858L816.906 543.443H818.041L838.273 463.692H907.627L851.121 613.149H780.631L723.984 463.692Z" fill="#6868AD"/>
<path d="M888.141 560.976H927.859V614.037H867.307L888.141 560.976Z" fill="#6868AD"/>
<path d="M491.111 614.214C532.786 614.214 566.57 580.431 566.57 538.758C566.57 497.084 532.786 463.301 491.111 463.301C449.436 463.301 415.652 497.084 415.652 538.758C415.652 580.431 449.436 614.214 491.111 614.214Z" fill="#6868AD"/>
<path d="M491.111 561.331C503.578 561.331 513.685 551.225 513.685 538.758C513.685 526.291 503.578 516.185 491.111 516.185C478.644 516.185 468.537 526.291 468.537 538.758C468.537 551.225 478.644 561.331 491.111 561.331Z" fill="#F6F9FA"/>
<path d="M656.972 615.776C698.647 615.776 732.431 581.993 732.431 540.319C732.431 498.646 698.647 464.863 656.972 464.863C615.297 464.863 581.513 498.646 581.513 540.319C581.513 581.993 615.297 615.776 656.972 615.776Z" fill="#6868AD"/>
<path d="M656.972 562.892C669.439 562.892 679.546 552.786 679.546 540.319C679.546 527.853 669.439 517.746 656.972 517.746C644.505 517.746 634.398 527.853 634.398 540.319C634.398 552.786 644.505 562.892 656.972 562.892Z" fill="#F6F9FA"/>
</g>
<defs>
<clipPath id="clip0_30_26">
<rect width="1080" height="1080" fill="white"/>
</clipPath>
</defs>
</svg>
