<svg xmlns="http://www.w3.org/2000/svg" width="18.845" height="18.894" viewBox="0 0 18.845 18.894"><path d="M15.7,13.355a3.228,3.228,0,0,0-2.052.73L6.188,10.149a2.83,2.83,0,0,0,.094-.664,2.83,2.83,0,0,0-.094-.664l7.381-3.9a3.309,3.309,0,0,0,2.136.768,3,3,0,0,0,3.141-2.845A3,3,0,0,0,15.7,0a3,3,0,0,0-3.141,2.845,2.83,2.83,0,0,0,.094.664l-7.381,3.9a3.309,3.309,0,0,0-2.136-.768A3,3,0,0,0,0,9.485,3,3,0,0,0,3.141,12.33a3.309,3.309,0,0,0,2.136-.768l7.454,3.946a2.438,2.438,0,0,0-.084.617,2.927,2.927,0,0,0,3.057,2.77,2.927,2.927,0,0,0,3.057-2.77A2.927,2.927,0,0,0,15.7,13.355Z" fill="#fff"/></svg>