<svg xmlns="http://www.w3.org/2000/svg" width="280" height="279" viewBox="0 0 280 279">
  <g id="Groupe_406" data-name="Groupe 406" transform="translate(0.066 0.46)">
    <ellipse id="Ellipse_26" data-name="Ellipse 26" cx="140" cy="139.5" rx="140" ry="139.5" transform="translate(-0.066 -0.46)" fill="#030305"/>
    <g id="tiktok-1" transform="translate(81.599 71.466)">
      <path id="Tracé_122" data-name="Tracé 122" d="M48.1,19.494V14.388A45.01,45.01,0,0,0,42.39,14C19.018,14,0,31.8,0,53.675c0,13.418,7.167,25.3,18.1,32.48A38.172,38.172,0,0,1,6.714,59.146C6.714,37.581,25.189,20,48.1,19.494" transform="translate(0 34.104)" fill="#00f2ea"/>
      <path id="Tracé_123" data-name="Tracé 123" d="M24.871,109.952A18.3,18.3,0,0,0,43.178,92.4l.034-86.9H59.189A29.961,29.961,0,0,1,58.67,0H36.852l-.038,86.907A18.322,18.322,0,0,1,10,102.351a18.348,18.348,0,0,0,14.872,7.6M89.027,35V30.168A30.3,30.3,0,0,1,72.5,25.285,30.409,30.409,0,0,0,89.031,35" transform="translate(24.357)" fill="#00f2ea"/>
      <path id="Tracé_124" data-name="Tracé 124" d="M79.156,21.647A29.653,29.653,0,0,1,71.707,2H65.876a30.013,30.013,0,0,0,13.28,19.647M25.3,64.071a18.069,18.069,0,0,0-8.49,34.137,17.867,17.867,0,0,1-3.463-10.559,18.233,18.233,0,0,1,23.7-17.273V48.386a40.27,40.27,0,0,0-5.4-.392c-.316,0-.629.021-.941.024V64.91a18.162,18.162,0,0,0-5.4-.838" transform="translate(17.052 4.872)" fill="#ff004f"/>
      <path id="Tracé_125" data-name="Tracé 125" d="M98.3,11V27.781a52.056,52.056,0,0,1-30.281-9.659V61.99A40.088,40.088,0,0,1,5,94.522,40.1,40.1,0,0,0,74.362,67.474V23.6a52.055,52.055,0,0,0,30.281,9.655V11.67A30.477,30.477,0,0,1,98.3,11" transform="translate(12.18 26.796)" fill="#ff004f"/>
      <path id="Tracé_126" data-name="Tracé 126" d="M77.52,82.471V38.532a54.086,54.086,0,0,0,31,9.676v-16.8a31.209,31.209,0,0,1-16.878-9.69A30.088,30.088,0,0,1,78.045,2H61.735L61.7,88.639a18.493,18.493,0,0,1-18.692,17.489,18.9,18.9,0,0,1-15.187-7.573A18.115,18.115,0,0,1,17.788,82.468c.01-10.033,8.384-18.159,18.726-18.173a18.95,18.95,0,0,1,5.525.842V48.187C19.874,48.692,2,66.329,2,87.955a39.006,39.006,0,0,0,11.012,27.093,41.627,41.627,0,0,0,23.5,7.212c22.609,0,41.005-17.85,41.005-39.789" transform="translate(4.872 4.872)" fill="#fff"/>
    </g>
  </g>
</svg>
