<svg xmlns="http://www.w3.org/2000/svg" width="270" height="279" viewBox="0 0 270 279">
  <g id="Groupe_408" data-name="Groupe 408" transform="translate(-0.153 0.46)">
    <ellipse id="Ellipse_24" data-name="Ellipse 24" cx="135" cy="139.5" rx="135" ry="139.5" transform="translate(0.153 -0.46)" fill="#00acee"/>
    <path id="twitter" d="M117.767,74.65c.083,1.166.083,2.332.083,3.5,0,35.563-27.068,76.54-76.54,76.54A76.021,76.021,0,0,1,0,142.612a55.65,55.65,0,0,0,6.5.333,53.876,53.876,0,0,0,33.4-11.493A26.949,26.949,0,0,1,14.742,112.8a33.925,33.925,0,0,0,5.081.416A28.453,28.453,0,0,0,26.9,112.3,26.905,26.905,0,0,1,5.33,85.894v-.333a27.092,27.092,0,0,0,12.16,3.415A26.942,26.942,0,0,1,9.161,53,76.467,76.467,0,0,0,64.63,81.147a30.368,30.368,0,0,1-.666-6.163,26.927,26.927,0,0,1,46.557-18.406,52.963,52.963,0,0,0,17.074-6.5,26.829,26.829,0,0,1-11.827,14.825,53.929,53.929,0,0,0,15.491-4.164A57.828,57.828,0,0,1,117.767,74.65Z" transform="translate(67.458 36.586)" fill="#fbfbfb"/>
  </g>
</svg>
