<svg xmlns="http://www.w3.org/2000/svg" width="275" height="279" viewBox="0 0 275 279">
  <g id="Groupe_407" data-name="Groupe 407" transform="translate(0.049 0.46)">
    <ellipse id="Ellipse_25" data-name="Ellipse 25" cx="137.5" cy="139.5" rx="137.5" ry="139.5" transform="translate(-0.049 -0.46)" fill="#c4302b"/>
    <path id="youtube" d="M171.872,81.634A20.14,20.14,0,0,0,157.7,67.371C145.2,64,95.077,64,95.077,64s-50.123,0-62.624,3.371A20.141,20.141,0,0,0,18.282,81.634c-3.349,12.581-3.349,38.831-3.349,38.831s0,26.25,3.349,38.831a19.84,19.84,0,0,0,14.171,14.035c12.5,3.371,62.624,3.371,62.624,3.371s50.123,0,62.624-3.371A19.84,19.84,0,0,0,171.872,159.3c3.349-12.581,3.349-38.831,3.349-38.831S175.222,94.215,171.872,81.634ZM78.684,144.3V96.632l41.893,23.833Z" transform="translate(42.004 20.668)" fill="#fff"/>
  </g>
</svg>
