<svg xmlns="http://www.w3.org/2000/svg" xmlns:xlink="http://www.w3.org/1999/xlink" width="29" height="28" viewBox="0 0 29 28"><defs><clipPath id="a"><rect width="29" height="28" transform="translate(1604 10)" fill="#fff" stroke="#707070" stroke-width="1"/></clipPath></defs><g transform="translate(-1604 -10)" clip-path="url(#a)"><g transform="translate(1604.814 10)"><path d="M13.8,0a13.8,13.8,0,1,0,0,27.6q.624,0,1.242-.056c.383-.034.763-.087,1.14-.153l.145-.026A13.8,13.8,0,0,0,13.8,0ZM12.692,26.633h-.033c-.358-.032-.713-.08-1.065-.141l-.06-.01q-.516-.092-1.022-.227l-.082-.021c-.329-.089-.654-.193-.975-.308l-.1-.035c-.314-.115-.623-.245-.927-.385l-.113-.051c-.3-.138-.59-.293-.877-.457l-.122-.069q-.423-.247-.828-.528l-.123-.085c-.266-.188-.525-.389-.777-.6l-.069-.061V19.781a5.066,5.066,0,0,1,5.06-5.06h6.44a5.066,5.066,0,0,1,5.06,5.06V23.66l-.061.051q-.386.322-.792.61l-.108.074q-.41.285-.841.537l-.108.061c-.291.166-.587.322-.888.463l-.1.046c-.306.141-.618.271-.934.388l-.092.033c-.322.115-.649.22-.979.31l-.079.02c-.338.089-.678.166-1.023.228l-.059.009c-.352.062-.708.109-1.066.141h-.033c-.368.032-.736.049-1.109.049s-.744-.014-1.111-.046ZM23,22.807V19.781a5.987,5.987,0,0,0-5.98-5.98h-6.44a5.987,5.987,0,0,0-5.98,5.98v3.026a12.881,12.881,0,1,1,18.4,0Zm0,0" transform="translate(0 0)" fill="#9a9a9a"/><path d="M21.6,6.8a4.6,4.6,0,1,0,4.6,4.6A4.6,4.6,0,0,0,21.6,6.8Zm0,8.28a3.68,3.68,0,1,1,3.68-3.68A3.68,3.68,0,0,1,21.6,15.08Zm0,0" transform="translate(-7.8 -3.12)" fill="#9a9a9a"/></g></g></svg>